<svg xmlns="http://www.w3.org/2000/svg" viewBox="-50 -10 1960 1650" width="100%" style="max-width:1960px; background:#fff; font-family: ui-monospace, monospace;" role="graphics-document">
<defs>
  <filter id="drop-shadow" x="-20%" y="-20%" width="140%" height="140%">
    <feDropShadow dx="2" dy="2" stdDeviation="3" flood-color="rgba(0,0,0,0.12)"/>
  </filter>
  <marker id="arrowhead" markerWidth="10" markerHeight="7" refX="10" refY="3.5" orient="auto">
    <polygon points="0 0, 10 3.5, 0 7" fill="#333"/>
  </marker>
  <marker id="arrowhead-ret" markerWidth="10" markerHeight="7" refX="10" refY="3.5" orient="auto">
    <polygon points="0 0, 10 3.5, 0 7" fill="#666"/>
  </marker>
</defs>
<text x="930" y="30" text-anchor="middle" font-size="18" font-weight="700" fill="#1e293b">Hybrid RAG — Cache Sequence Flow</text>
<text x="930" y="52" text-anchor="middle" font-size="12" fill="#64748b">WS /ws/chat path · L1 (shared retrieval) · L2 (embedding LRU) · ChromaDB</text>
<g>
<rect x="50" y="65" width="200" height="60" rx="8" ry="8" fill="rgb(253, 244, 255)" stroke="rgb(232, 121, 249)" stroke-width="2" filter="url(#drop-shadow)"/>
<text x="150" y="98" text-anchor="middle" font-size="14" font-weight="600" fill="#1e293b">User/Browser</text>
</g>
<g>
<rect x="310" y="65" width="200" height="60" rx="8" ry="8" fill="rgb(240, 253, 250)" stroke="rgb(45, 212, 191)" stroke-width="2" filter="url(#drop-shadow)"/>
<text x="410" y="98" text-anchor="middle" font-size="14" font-weight="600" fill="#1e293b">WS /ws/chat</text>
</g>
<g>
<rect x="570" y="65" width="200" height="60" rx="8" ry="8" fill="rgb(240, 253, 244)" stroke="rgb(74, 222, 128)" stroke-width="2" filter="url(#drop-shadow)"/>
<text x="670" y="98" text-anchor="middle" font-size="14" font-weight="600" fill="#1e293b">_shared_retrieve_documents</text>
</g>
<g>
<rect x="830" y="65" width="200" height="60" rx="8" ry="8" fill="rgb(245, 243, 255)" stroke="rgb(167, 139, 250)" stroke-width="2" filter="url(#drop-shadow)"/>
<text x="930" y="98" text-anchor="middle" font-size="14" font-weight="600" fill="#1e293b">LazyCache / CacheBackend</text>
</g>
<g>
<rect x="1090" y="65" width="200" height="60" rx="8" ry="8" fill="rgb(254, 242, 242)" stroke="rgb(248, 113, 113)" stroke-width="2" filter="url(#drop-shadow)"/>
<text x="1190" y="98" text-anchor="middle" font-size="14" font-weight="600" fill="#1e293b">HybridRetriever</text>
</g>
<g>
<rect x="1350" y="65" width="200" height="60" rx="8" ry="8" fill="rgb(254, 252, 232)" stroke="rgb(250, 204, 21)" stroke-width="2" filter="url(#drop-shadow)"/>
<text x="1450" y="98" text-anchor="middle" font-size="14" font-weight="600" fill="#1e293b">L2 Embedding LRU</text>
</g>
<g>
<rect x="1610" y="65" width="200" height="60" rx="8" ry="8" fill="rgb(238, 242, 255)" stroke="rgb(129, 140, 248)" stroke-width="2" filter="url(#drop-shadow)"/>
<text x="1710" y="98" text-anchor="middle" font-size="14" font-weight="600" fill="#1e293b">ChromaDB (persistent)</text>
</g>
<line x1="150" y1="125" x2="150" y2="1500" stroke="#999" stroke-width="1.5" stroke-dasharray="6,4"/>
<line x1="410" y1="125" x2="410" y2="1500" stroke="#999" stroke-width="1.5" stroke-dasharray="6,4"/>
<line x1="670" y1="125" x2="670" y2="1500" stroke="#999" stroke-width="1.5" stroke-dasharray="6,4"/>
<line x1="930" y1="125" x2="930" y2="1500" stroke="#999" stroke-width="1.5" stroke-dasharray="6,4"/>
<line x1="1190" y1="125" x2="1190" y2="1500" stroke="#999" stroke-width="1.5" stroke-dasharray="6,4"/>
<line x1="1450" y1="125" x2="1450" y2="1500" stroke="#999" stroke-width="1.5" stroke-dasharray="6,4"/>
<line x1="1710" y1="125" x2="1710" y2="1500" stroke="#999" stroke-width="1.5" stroke-dasharray="6,4"/>
<line x1="150" y1="120" x2="410" y2="120" stroke="#333" stroke-width="1.8" stroke-dasharray="none" marker-end="url(#arrowhead)"/>
<text x="280" y="115" text-anchor="middle" font-size="13" fill="#334155">send_json {query, enable_rerank}</text>
<path d="M410 170 C460 170 460 192 410 192" fill="none" stroke="#94a3b8" stroke-width="1.5" marker-end="url(#arrowhead-ret)"/>
<text x="466" y="184" font-size="13" fill="#475569">validate, generate correlation_id</text>
<path d="M410 220 C460 220 460 242 410 242" fill="none" stroke="#94a3b8" stroke-width="1.5" marker-end="url(#arrowhead-ret)"/>
<text x="466" y="234" font-size="13" fill="#475569">send {type: &quot;status&quot;}</text>
<line x1="410" y1="270" x2="670" y2="270" stroke="#333" stroke-width="1.8" stroke-dasharray="none" marker-end="url(#arrowhead)"/>
<text x="540" y="265" text-anchor="middle" font-size="13" fill="#334155">_shared_retrieve_documents(query, ...)</text>
<path d="M670 320 C720 320 720 342 670 342" fill="none" stroke="#94a3b8" stroke-width="1.5" marker-end="url(#arrowhead-ret)"/>
<text x="726" y="334" font-size="13" fill="#475569">normalize, build cache_key (SHA-256)</text>
<line x1="670" y1="370" x2="930" y2="370" stroke="#333" stroke-width="1.8" stroke-dasharray="none" marker-end="url(#arrowhead)"/>
<text x="800" y="365" text-anchor="middle" font-size="13" fill="#334155">lazy_cache.get(cache_key)</text>
<rect x="20" y="406" width="1900" height="20" fill="#fffde7" stroke="#f9a825" stroke-width="1" rx="3" opacity="0.85"/>
<text x="28" y="419" font-size="11" font-weight="600" fill="#b45309">Cache HIT path</text>
<line x1="930" y1="430" x2="670" y2="430" stroke="#666" stroke-width="1.8" stroke-dasharray="5,3" marker-end="url(#arrowhead-ret)"/>
<text x="800" y="425" text-anchor="middle" font-size="13" fill="#334155">cached results (HIT)</text>
<path d="M670 470 C720 470 720 492 670 492" fill="none" stroke="#94a3b8" stroke-width="1.5" marker-end="url(#arrowhead-ret)"/>
<text x="726" y="484" font-size="13" fill="#475569">_out_cache_status → &quot;HIT&quot;</text>
<line x1="670" y1="520" x2="410" y2="520" stroke="#666" stroke-width="1.8" stroke-dasharray="5,3" marker-end="url(#arrowhead-ret)"/>
<text x="540" y="515" text-anchor="middle" font-size="13" fill="#334155">return results</text>
<line x1="410" y1="570" x2="150" y2="570" stroke="#666" stroke-width="1.8" stroke-dasharray="5,3" marker-end="url(#arrowhead-ret)"/>
<text x="280" y="565" text-anchor="middle" font-size="13" fill="#334155">{type:&quot;results&quot;, cache_status:&quot;HIT&quot;}</text>
<rect x="20" y="606" width="1900" height="20" fill="#fffde7" stroke="#f9a825" stroke-width="1" rx="3" opacity="0.85"/>
<text x="28" y="619" font-size="11" font-weight="600" fill="#b45309">Cache MISS path</text>
<line x1="930" y1="630" x2="670" y2="630" stroke="#666" stroke-width="1.8" stroke-dasharray="5,3" marker-end="url(#arrowhead-ret)"/>
<text x="800" y="625" text-anchor="middle" font-size="13" fill="#334155">None (MISS)</text>
<path d="M670 670 C720 670 720 692 670 692" fill="none" stroke="#94a3b8" stroke-width="1.5" marker-end="url(#arrowhead-ret)"/>
<text x="726" y="684" font-size="13" fill="#475569">_out_cache_status → &quot;MISS&quot;</text>
<line x1="670" y1="720" x2="1190" y2="720" stroke="#333" stroke-width="1.8" stroke-dasharray="none" marker-end="url(#arrowhead)"/>
<text x="930" y="715" text-anchor="middle" font-size="13" fill="#334155">retrieve(query, enable_rerank)</text>
<line x1="1190" y1="770" x2="1450" y2="770" stroke="#333" stroke-width="1.8" stroke-dasharray="none" marker-end="url(#arrowhead)"/>
<text x="1320" y="765" text-anchor="middle" font-size="13" fill="#334155">_get_or_encode_embedding(query)</text>
<path d="M1450 820 C1500 820 1500 842 1450 842" fill="none" stroke="#94a3b8" stroke-width="1.5" marker-end="url(#arrowhead-ret)"/>
<text x="1506" y="834" font-size="13" fill="#475569">SHA-256 key lookup</text>
<line x1="1450" y1="870" x2="1710" y2="870" stroke="#333" stroke-width="1.8" stroke-dasharray="none" marker-end="url(#arrowhead)"/>
<text x="1580" y="865" text-anchor="middle" font-size="13" fill="#334155">[L2 miss] encode via SentenceTransformer</text>
<line x1="1710" y1="920" x2="1450" y2="920" stroke="#666" stroke-width="1.8" stroke-dasharray="5,3" marker-end="url(#arrowhead-ret)"/>
<text x="1580" y="915" text-anchor="middle" font-size="13" fill="#334155">embedding vector</text>
<line x1="1450" y1="970" x2="1190" y2="970" stroke="#666" stroke-width="1.8" stroke-dasharray="5,3" marker-end="url(#arrowhead-ret)"/>
<text x="1320" y="965" text-anchor="middle" font-size="13" fill="#334155">embedding (cached in L2)</text>
<line x1="1190" y1="1020" x2="1710" y2="1020" stroke="#333" stroke-width="1.8" stroke-dasharray="none" marker-end="url(#arrowhead)"/>
<text x="1450" y="1015" text-anchor="middle" font-size="13" fill="#334155">ChromaDB.query(embedding, top_k)</text>
<line x1="1710" y1="1070" x2="1190" y2="1070" stroke="#666" stroke-width="1.8" stroke-dasharray="5,3" marker-end="url(#arrowhead-ret)"/>
<text x="1450" y="1065" text-anchor="middle" font-size="13" fill="#334155">semantic results</text>
<path d="M1190 1120 C1240 1120 1240 1142 1190 1142" fill="none" stroke="#94a3b8" stroke-width="1.5" marker-end="url(#arrowhead-ret)"/>
<text x="1246" y="1134" font-size="13" fill="#475569">BM25 keyword search + score fusion</text>
<path d="M1190 1170 C1240 1170 1240 1192 1190 1192" fill="none" stroke="#94a3b8" stroke-width="1.5" marker-end="url(#arrowhead-ret)"/>
<text x="1246" y="1184" font-size="13" fill="#475569">[if enabled] cross-encoder rerank</text>
<path d="M1190 1220 C1240 1220 1240 1242 1190 1242" fill="none" stroke="#94a3b8" stroke-width="1.5" marker-end="url(#arrowhead-ret)"/>
<text x="1246" y="1234" font-size="13" fill="#475569">source deduplication</text>
<line x1="1190" y1="1270" x2="670" y2="1270" stroke="#666" stroke-width="1.8" stroke-dasharray="5,3" marker-end="url(#arrowhead-ret)"/>
<text x="930" y="1265" text-anchor="middle" font-size="13" fill="#334155">return results</text>
<line x1="670" y1="1320" x2="930" y2="1320" stroke="#333" stroke-width="1.8" stroke-dasharray="none" marker-end="url(#arrowhead)"/>
<text x="800" y="1315" text-anchor="middle" font-size="13" fill="#334155">lazy_cache.set(cache_key, results)</text>
<line x1="670" y1="1370" x2="410" y2="1370" stroke="#666" stroke-width="1.8" stroke-dasharray="5,3" marker-end="url(#arrowhead-ret)"/>
<text x="540" y="1365" text-anchor="middle" font-size="13" fill="#334155">return results</text>
<line x1="410" y1="1420" x2="150" y2="1420" stroke="#666" stroke-width="1.8" stroke-dasharray="5,3" marker-end="url(#arrowhead-ret)"/>
<text x="280" y="1415" text-anchor="middle" font-size="13" fill="#334155">{type:&quot;results&quot;, cache_status:&quot;MISS&quot;}</text>
<g>
<rect x="50" y="1508" width="200" height="60" rx="8" ry="8" fill="rgb(253, 244, 255)" stroke="rgb(232, 121, 249)" stroke-width="2" filter="url(#drop-shadow)"/>
<text x="150" y="1541" text-anchor="middle" font-size="14" font-weight="600" fill="#1e293b">User/Browser</text>
</g>
<g>
<rect x="310" y="1508" width="200" height="60" rx="8" ry="8" fill="rgb(240, 253, 250)" stroke="rgb(45, 212, 191)" stroke-width="2" filter="url(#drop-shadow)"/>
<text x="410" y="1541" text-anchor="middle" font-size="14" font-weight="600" fill="#1e293b">WS /ws/chat</text>
</g>
<g>
<rect x="570" y="1508" width="200" height="60" rx="8" ry="8" fill="rgb(240, 253, 244)" stroke="rgb(74, 222, 128)" stroke-width="2" filter="url(#drop-shadow)"/>
<text x="670" y="1541" text-anchor="middle" font-size="14" font-weight="600" fill="#1e293b">_shared_retrieve_documents</text>
</g>
<g>
<rect x="830" y="1508" width="200" height="60" rx="8" ry="8" fill="rgb(245, 243, 255)" stroke="rgb(167, 139, 250)" stroke-width="2" filter="url(#drop-shadow)"/>
<text x="930" y="1541" text-anchor="middle" font-size="14" font-weight="600" fill="#1e293b">LazyCache / CacheBackend</text>
</g>
<g>
<rect x="1090" y="1508" width="200" height="60" rx="8" ry="8" fill="rgb(254, 242, 242)" stroke="rgb(248, 113, 113)" stroke-width="2" filter="url(#drop-shadow)"/>
<text x="1190" y="1541" text-anchor="middle" font-size="14" font-weight="600" fill="#1e293b">HybridRetriever</text>
</g>
<g>
<rect x="1350" y="1508" width="200" height="60" rx="8" ry="8" fill="rgb(254, 252, 232)" stroke="rgb(250, 204, 21)" stroke-width="2" filter="url(#drop-shadow)"/>
<text x="1450" y="1541" text-anchor="middle" font-size="14" font-weight="600" fill="#1e293b">L2 Embedding LRU</text>
</g>
<g>
<rect x="1610" y="1508" width="200" height="60" rx="8" ry="8" fill="rgb(238, 242, 255)" stroke="rgb(129, 140, 248)" stroke-width="2" filter="url(#drop-shadow)"/>
<text x="1710" y="1541" text-anchor="middle" font-size="14" font-weight="600" fill="#1e293b">ChromaDB (persistent)</text>
</g>
</svg>